# Blender 3.6.5
# www.blender.org
mtllib Dart1.mtl
o Cube
v -0.000125 0.366950 -1.448114
v -0.000126 0.366950 1.951048
v 0.259487 0.259482 -1.448108
v 0.259487 0.259482 1.951040
v 0.367259 -0.000310 -1.448098
v 0.367260 -0.000310 1.951032
v 0.259643 -0.260978 -1.448484
v 0.259643 -0.260978 1.951416
v -0.000849 -0.366095 -1.447770
v -0.000849 -0.366095 1.950702
v -0.259537 -0.259129 -1.448126
v -0.259537 -0.259129 1.951060
v -0.366999 0.000021 -1.448121
v -0.366999 0.000022 1.951054
v -0.259600 0.259438 -1.448116
v -0.259600 0.259438 1.951049
v 0.000000 0.333334 -1.418928
v 0.235702 0.235703 -1.418928
v 0.333334 0.000000 -1.418929
v 0.235702 -0.235702 -1.418929
v 0.000000 -0.333334 -1.418929
v -0.235702 -0.235702 -1.418929
v -0.333334 0.000000 -1.418929
v -0.235702 0.235703 -1.418928
v 0.000000 0.276814 -1.895357
v 0.195737 0.195737 -1.895357
v 0.276814 0.000000 -1.895357
v 0.195737 -0.195737 -1.895357
v 0.000000 -0.276814 -1.895357
v -0.195737 -0.195737 -1.895357
v -0.276814 0.000000 -1.895357
v -0.195737 0.195737 -1.895357
v -0.377149 0.000000 -1.548964
v -0.266684 -0.266684 -1.548964
v 0.000000 -0.377149 -1.548964
v 0.266684 -0.266684 -1.548964
v 0.377149 0.000000 -1.548964
v 0.266684 0.266684 -1.548964
v -0.266684 0.266684 -1.548964
v 0.000000 0.377149 -1.548964
v -0.377149 0.000000 -1.770927
v 0.000000 -0.377149 -1.770927
v 0.377149 0.000000 -1.770927
v -0.266684 0.266684 -1.770927
v -0.266684 -0.266684 -1.770927
v 0.266684 -0.266684 -1.770927
v 0.266684 0.266684 -1.770927
v 0.000000 0.377149 -1.770927
v 0.140347 0.339036 -1.448213
v 0.140346 0.339036 1.951145
v 0.339173 0.140348 -1.448198
v 0.339173 0.140347 1.951131
v 0.339400 -0.141082 -1.448296
v 0.339400 -0.141082 1.951230
v 0.146624 -0.336681 -1.448251
v 0.146624 -0.336681 1.951183
v -0.140620 -0.338486 -1.448130
v -0.140620 -0.338486 1.951063
v -0.339036 -0.140283 -1.448230
v -0.339036 -0.140283 1.951163
v -0.339112 0.140397 -1.448217
v -0.339112 0.140397 1.951150
v -0.140564 0.338995 -1.448216
v -0.140564 0.338995 1.951148
v 0.304550 0.126149 -1.418928
v 0.252911 0.104759 -1.895357
v 0.344582 0.142730 -1.548964
v 0.344582 0.142730 -1.770927
v 0.126149 0.304550 -1.418928
v 0.104759 0.252911 -1.895357
v 0.142730 0.344582 -1.548964
v 0.142730 0.344582 -1.770927
v 0.304550 -0.126149 -1.418929
v 0.252911 -0.104759 -1.895357
v 0.344582 -0.142730 -1.548964
v 0.344582 -0.142730 -1.770927
v 0.126149 -0.304550 -1.418929
v 0.104759 -0.252911 -1.895357
v 0.142730 -0.344582 -1.548964
v 0.142730 -0.344582 -1.770927
v -0.126149 -0.304550 -1.418929
v -0.104759 -0.252911 -1.895357
v -0.142730 -0.344582 -1.548964
v -0.142730 -0.344582 -1.770927
v -0.304550 -0.126149 -1.418929
v -0.252911 -0.104759 -1.895357
v -0.344582 -0.142730 -1.548964
v -0.344582 -0.142730 -1.770927
v -0.304550 0.126149 -1.418928
v -0.252911 0.104759 -1.895357
v -0.344582 0.142730 -1.548964
v -0.344582 0.142730 -1.770927
v -0.126149 0.304550 -1.418928
v -0.104759 0.252911 -1.895357
v -0.142730 0.344582 -1.548964
v -0.142730 0.344582 -1.770927
vn 0.5553 0.8316 -0.0000
vn 0.9806 0.1958 -0.0000
vn 0.8326 -0.5539 -0.0000
vn 0.1956 -0.9807 -0.0000
vn -0.5551 -0.8318 -0.0000
vn -0.9807 -0.1955 -0.0000
vn -0.0001 -0.0000 1.0000
vn -0.8316 0.5554 -0.0000
vn -0.1952 0.9808 -0.0000
vn -0.0001 -0.0000 -1.0000
vn -0.0000 -0.0000 -1.0000
vn -0.7665 -0.1749 -0.6180
vn 0.1749 -0.7665 -0.6180
vn 0.7665 0.1749 -0.6180
vn -0.6656 0.4183 -0.6180
vn -0.4183 -0.6656 -0.6180
vn 0.6656 -0.4183 -0.6180
vn 0.4183 0.6656 -0.6180
vn -0.1749 0.7665 -0.6180
vn -0.2113 0.9262 0.3121
vn 0.5055 0.8044 0.3121
vn 0.8044 -0.5055 0.3121
vn -0.5055 -0.8044 0.3121
vn -0.8044 0.5055 0.3121
vn 0.9262 0.2113 0.3121
vn 0.2113 -0.9262 0.3121
vn -0.9262 -0.2113 0.3121
vn -0.2225 0.9749 -0.0000
vn 0.5321 0.8467 -0.0000
vn 0.8467 -0.5321 -0.0000
vn -0.5321 -0.8467 -0.0000
vn -0.8467 0.5321 -0.0000
vn 0.9749 0.2225 -0.0000
vn 0.2225 -0.9749 -0.0000
vn -0.9749 -0.2225 -0.0000
vn 0.1949 0.9808 -0.0000
vn 0.8312 0.5560 -0.0000
vn 0.9810 -0.1941 -0.0000
vn 0.5565 -0.8308 -0.0000
vn -0.1938 -0.9810 -0.0000
vn -0.8312 -0.5560 -0.0000
vn -0.9808 0.1949 -0.0000
vn -0.5557 0.8314 -0.0000
vn 0.8467 0.5321 -0.0000
vn 0.8044 0.5055 0.3121
vn 0.6656 0.4183 -0.6180
vn 0.2225 0.9749 -0.0000
vn 0.2113 0.9262 0.3121
vn 0.1749 0.7665 -0.6180
vn 0.9749 -0.2225 -0.0000
vn 0.9262 -0.2113 0.3121
vn 0.7665 -0.1749 -0.6180
vn 0.5321 -0.8467 -0.0000
vn 0.5055 -0.8044 0.3121
vn 0.4183 -0.6656 -0.6180
vn -0.2225 -0.9749 -0.0000
vn -0.2113 -0.9262 0.3121
vn -0.1749 -0.7665 -0.6180
vn -0.8467 -0.5321 -0.0000
vn -0.8044 -0.5055 0.3121
vn -0.6656 -0.4183 -0.6180
vn -0.9749 0.2225 -0.0000
vn -0.9262 0.2113 0.3121
vn -0.7665 0.1749 -0.6180
vn -0.5321 0.8467 -0.0000
vn -0.5055 0.8044 0.3121
vn -0.4183 0.6656 -0.6180
vt 0.275977 0.000154
vt 0.275977 0.825164
vt 0.236574 0.825164
vt 0.236574 0.000154
vt 0.197171 0.000154
vt 0.197171 0.825164
vt 0.157768 0.825164
vt 0.157767 0.000154
vt 0.118364 0.000154
vt 0.118364 0.825164
vt 0.078961 0.825164
vt 0.078961 0.000154
vt 0.040495 0.000154
vt 0.040495 0.825164
vt 0.000154 0.825164
vt 0.000154 0.000154
vt 0.591203 0.000154
vt 0.591203 0.825164
vt 0.551800 0.825164
vt 0.551800 0.000154
vt 0.512397 0.000154
vt 0.512397 0.825164
vt 0.472994 0.825164
vt 0.472994 0.000154
vt 0.813638 0.963328
vt 0.776725 0.963328
vt 0.739812 0.963328
vt 0.713711 0.937227
vt 0.687610 0.911126
vt 0.687610 0.874214
vt 0.687610 0.837301
vt 0.713711 0.811200
vt 0.739812 0.785099
vt 0.776725 0.785099
vt 0.813637 0.785099
vt 0.840359 0.811821
vt 0.865840 0.837301
vt 0.865840 0.874214
vt 0.865840 0.911126
vt 0.839739 0.937227
vt 0.433590 0.000154
vt 0.433590 0.825164
vt 0.394187 0.825164
vt 0.394187 0.000154
vt 0.354784 0.000154
vt 0.354784 0.825164
vt 0.315381 0.825164
vt 0.315380 0.000154
vt 0.813637 0.606580
vt 0.839739 0.632681
vt 0.865840 0.658782
vt 0.865840 0.695695
vt 0.865840 0.732607
vt 0.839739 0.758709
vt 0.813637 0.784810
vt 0.777603 0.784810
vt 0.739812 0.784810
vt 0.713711 0.758709
vt 0.687610 0.732607
vt 0.687610 0.695695
vt 0.687610 0.658782
vt 0.713711 0.632681
vt 0.739812 0.606580
vt 0.776725 0.606580
vt 0.970307 0.475861
vt 0.976270 0.508101
vt 0.982232 0.540341
vt 0.963651 0.567354
vt 0.945069 0.594367
vt 0.912829 0.600329
vt 0.880589 0.606291
vt 0.853576 0.587710
vt 0.826563 0.569129
vt 0.820601 0.536889
vt 0.814639 0.504649
vt 0.833220 0.477636
vt 0.851802 0.450623
vt 0.884041 0.444661
vt 0.916281 0.438698
vt 0.943294 0.457280
vt 0.770549 0.475109
vt 0.769525 0.440778
vt 0.809402 0.441132
vt 0.812021 0.472890
vt 0.874880 0.102304
vt 0.896924 0.072001
vt 0.922101 0.106004
vt 0.903412 0.129400
vt 0.812127 0.221906
vt 0.823537 0.191389
vt 0.859160 0.206801
vt 0.849544 0.236176
vt 0.771388 0.408400
vt 0.773252 0.376022
vt 0.811007 0.380397
vt 0.810204 0.410765
vt 0.778134 0.549198
vt 0.771573 0.509440
vt 0.838186 0.161998
vt 0.852835 0.132608
vt 0.884723 0.152795
vt 0.871941 0.179798
vt 0.792416 0.283279
vt 0.800718 0.252424
vt 0.839927 0.265551
vt 0.829426 0.294053
vt 0.778683 0.345079
vt 0.784115 0.314135
vt 0.818924 0.322556
vt 0.814965 0.351476
vt 0.700775 0.333315
vt 0.705849 0.298168
vt 0.738729 0.305473
vt 0.732782 0.338922
vt 0.716140 0.264147
vt 0.726430 0.230127
vt 0.755973 0.239568
vt 0.747351 0.272521
vt 0.763377 0.129790
vt 0.777638 0.096346
vt 0.808839 0.110906
vt 0.794171 0.143066
vt 0.688318 0.551122
vt 0.689026 0.513846
vt 0.722155 0.513775
vt 0.723319 0.553511
vt 0.691656 0.404384
vt 0.695702 0.368462
vt 0.726835 0.372370
vt 0.724494 0.406973
vt 0.737773 0.196680
vt 0.749115 0.163233
vt 0.779503 0.175227
vt 0.767738 0.207397
vt 0.793780 0.061587
vt 0.809923 0.026829
vt 0.846146 0.039093
vt 0.827493 0.074999
vt 0.688318 0.477076
vt 0.687610 0.440306
vt 0.722152 0.441575
vt 0.722153 0.477675
vt 0.630607 0.000154
vt 0.630607 0.825164
vt 0.724484 0.593247
vt 0.784695 0.588957
vt 0.687610 0.588399
s 0
usemtl Material
f 49/1/1 50/2/1 4/3/1 3/4/1
f 51/5/2 52/6/2 6/7/2 5/8/2
f 53/9/3 54/10/3 8/11/3 7/12/3
f 55/13/4 56/14/4 10/15/4 9/16/4
f 57/17/5 58/18/5 12/19/5 11/20/5
f 59/21/6 60/22/6 14/23/6 13/24/6
f 4/25/7 50/26/7 2/27/7 64/28/7 16/29/7 62/30/7 14/31/7 60/32/7 12/33/7 58/34/7 10/35/7 56/36/7 8/37/7 54/38/7 6/39/7 52/40/7
f 61/41/8 62/42/8 16/43/8 15/44/8
f 63/45/9 64/46/9 2/47/9 1/48/9
f 1/49/10 49/50/10 3/51/10 51/52/10 5/53/10 53/54/10 7/55/10 55/56/10 9/57/10 57/58/10 11/59/10 59/60/10 13/61/10 61/62/10 15/63/10 63/64/10
f 25/65/11 70/66/11 26/67/11 66/68/11 27/69/11 74/70/11 28/71/11 78/72/11 29/73/11 82/74/11 30/75/11 86/76/11 31/77/11 90/78/11 32/79/11 94/80/11
f 88/81/12 41/82/12 31/83/12 86/84/12
f 80/85/13 42/86/13 29/87/13 78/88/13
f 68/89/14 43/90/14 27/91/14 66/92/14
f 92/93/15 44/94/15 32/95/15 90/96/15
f 84/97/16 45/98/16 30/75/16 82/74/16
f 76/99/17 46/100/17 28/101/17 74/102/17
f 72/103/18 47/104/18 26/105/18 70/106/18
f 96/107/19 48/108/19 25/109/19 94/110/19
f 93/111/20 17/112/20 40/113/20 95/114/20
f 69/115/21 18/116/21 38/117/21 71/118/21
f 73/119/22 20/120/22 36/121/22 75/122/22
f 81/123/23 22/124/23 34/125/23 83/126/23
f 89/127/24 24/128/24 39/129/24 91/130/24
f 65/131/25 19/132/25 37/133/25 67/134/25
f 77/135/26 21/136/26 35/137/26 79/138/26
f 85/139/27 23/140/27 33/141/27 87/142/27
f 95/114/28 40/113/28 48/108/28 96/107/28
f 71/118/29 38/117/29 47/104/29 72/103/29
f 75/122/30 36/121/30 46/100/30 76/99/30
f 83/126/31 34/125/31 45/98/31 84/97/31
f 91/130/32 39/129/32 44/94/32 92/93/32
f 67/134/33 37/133/33 43/90/33 68/89/33
f 79/138/34 35/137/34 42/86/34 80/85/34
f 87/142/35 33/141/35 41/82/35 88/81/35
f 1/48/36 2/47/36 50/2/36 49/1/36
f 3/4/37 4/3/37 52/6/37 51/5/37
f 5/8/38 6/7/38 54/10/38 53/9/38
f 7/12/39 8/11/39 56/14/39 55/13/39
f 9/143/40 10/144/40 58/18/40 57/17/40
f 11/20/41 12/19/41 60/22/41 59/21/41
f 13/24/42 14/23/42 62/42/42 61/41/42
f 15/44/43 16/43/43 64/46/43 63/45/43
f 38/117/44 67/134/44 68/89/44 47/104/44
f 18/116/45 65/131/45 67/134/45 38/117/45
f 47/104/46 68/89/46 66/92/46 26/105/46
f 40/113/47 71/118/47 72/103/47 48/108/47
f 17/112/48 69/115/48 71/118/48 40/113/48
f 48/108/49 72/103/49 70/106/49 25/109/49
f 37/133/50 75/122/50 76/99/50 43/90/50
f 19/132/51 73/119/51 75/122/51 37/133/51
f 43/90/52 76/99/52 74/102/52 27/91/52
f 36/121/53 79/138/53 80/85/53 46/100/53
f 20/120/54 77/135/54 79/138/54 36/121/54
f 46/100/55 80/85/55 78/88/55 28/101/55
f 35/145/56 83/126/56 84/97/56 42/146/56
f 21/147/57 81/123/57 83/126/57 35/145/57
f 42/146/58 84/97/58 82/74/58 29/73/58
f 34/125/59 87/142/59 88/81/59 45/98/59
f 22/124/60 85/139/60 87/142/60 34/125/60
f 45/98/61 88/81/61 86/84/61 30/75/61
f 33/141/62 91/130/62 92/93/62 41/82/62
f 23/140/63 89/127/63 91/130/63 33/141/63
f 41/82/64 92/93/64 90/96/64 31/83/64
f 39/129/65 95/114/65 96/107/65 44/94/65
f 24/128/66 93/111/66 95/114/66 39/129/66
f 44/94/67 96/107/67 94/110/67 32/95/67
